<?xml version="1.0" encoding="UTF-8"?>
<!DOCTYPE svg PUBLIC "-//W3C//DTD SVG 1.1//EN" "http://www.w3.org/Graphics/SVG/1.1/DTD/svg11.dtd">
<svg xmlns="http://www.w3.org/2000/svg" version="1.1" width="1920px" height="700px" style="shape-rendering:geometricPrecision; text-rendering:geometricPrecision; image-rendering:optimizeQuality; fill-rule:evenodd; clip-rule:evenodd" xmlns:xlink="http://www.w3.org/1999/xlink">
<g><path style="opacity:1" fill="#d8e9fd" d="M -0.5,-0.5 C 338.833,-0.5 678.167,-0.5 1017.5,-0.5C 994.303,17.6726 990.136,39.6726 1005,65.5C 1012.55,74.5255 1022.05,80.3588 1033.5,83C 1054.17,83.3333 1074.83,83.6667 1095.5,84C 1115.9,89.0643 1128.07,101.898 1132,122.5C 1132.99,141.856 1125.49,156.856 1109.5,167.5C 1079.16,167.333 1048.83,167.5 1018.5,168C 1013.58,168.808 1008.91,170.308 1004.5,172.5C 977.844,172.66 961.344,185.66 955,211.5C 953.174,230.367 960.007,245.201 975.5,256C 980.419,259.127 985.752,261.127 991.5,262C 1008.78,259.914 1024.12,264.247 1037.5,275C 1055.44,295.793 1055.94,316.96 1039,338.5C 1035.45,341.719 1031.61,344.552 1027.5,347C 1013.99,347.169 1000.66,347.669 987.5,348.5C 982.654,349.227 977.987,350.56 973.5,352.5C 943.789,352.712 927.123,367.545 923.5,397C 925.339,422.837 939.006,437.837 964.5,442C 987.833,442.333 1011.17,442.667 1034.5,443C 1060.4,450.951 1072.23,468.451 1070,495.5C 1066.35,510.879 1057.51,521.879 1043.5,528.5C 1040.17,529.5 1036.83,530.5 1033.5,531.5C 1013.47,530.265 997.971,537.931 987,554.5C 977.364,574.985 980.197,593.485 995.5,610C 1001.95,615.376 1009.28,619.043 1017.5,621C 1055.83,621.333 1094.17,621.667 1132.5,622C 1152.41,625.248 1165.58,636.415 1172,655.5C 1174.96,672.33 1170.8,686.997 1159.5,699.5C 772.833,699.5 386.167,699.5 -0.5,699.5C -0.5,466.167 -0.5,232.833 -0.5,-0.5 Z"/></g>
<g><path style="opacity:1" fill="#b8cefd" d="M 1017.5,-0.5 C 1023.5,-0.5 1029.5,-0.5 1035.5,-0.5C 1018.59,18.6141 1017.09,38.9474 1031,60.5C 1038.18,68.6722 1047.01,74.1722 1057.5,77C 1077.5,77.3333 1097.5,77.6667 1117.5,78C 1145.1,83.5915 1158.6,100.425 1158,128.5C 1152.08,154.212 1135.92,167.212 1109.5,167.5C 1125.49,156.856 1132.99,141.856 1132,122.5C 1128.07,101.898 1115.9,89.0643 1095.5,84C 1074.83,83.6667 1054.17,83.3333 1033.5,83C 1022.05,80.3588 1012.55,74.5255 1005,65.5C 990.136,39.6726 994.303,17.6726 1017.5,-0.5 Z"/></g>
<g><path style="opacity:1" fill="#446af8" d="M 1035.5,-0.5 C 1302.5,-0.5 1569.5,-0.5 1836.5,-0.5C 1789.02,15.822 1761.19,48.822 1753,98.5C 1752.33,263.5 1752.33,428.5 1753,593.5C 1759.36,640.181 1784.19,672.681 1827.5,691C 1836.22,694.429 1845.22,696.763 1854.5,698C 1876.16,698.5 1897.83,698.667 1919.5,698.5C 1919.5,698.833 1919.5,699.167 1919.5,699.5C 1673.5,699.5 1427.5,699.5 1181.5,699.5C 1200.79,681.98 1204.29,661.647 1192,638.5C 1184.55,627.853 1174.38,621.353 1161.5,619C 1122.17,618.667 1082.83,618.333 1043.5,618C 1017.39,610.293 1005.22,592.793 1007,565.5C 1010.45,549.896 1019.28,538.563 1033.5,531.5C 1036.83,530.5 1040.17,529.5 1043.5,528.5C 1078.98,528.517 1096.48,510.851 1096,475.5C 1091.28,456.442 1079.44,444.276 1060.5,439C 1036.17,438.667 1011.83,438.333 987.5,438C 957.093,429.352 944.926,409.519 951,378.5C 955.524,367.151 963.024,358.484 973.5,352.5C 977.987,350.56 982.654,349.227 987.5,348.5C 1003.84,348.667 1020.17,348.5 1036.5,348C 1065.96,341.193 1079.13,322.693 1076,292.5C 1071.33,276.496 1061.16,265.663 1045.5,260C 1033.16,258.334 1020.83,256.667 1008.5,255C 985.025,243.21 976.192,224.377 982,198.5C 986.524,187.151 994.024,178.484 1004.5,172.5C 1008.91,170.308 1013.58,168.808 1018.5,168C 1048.83,167.5 1079.16,167.333 1109.5,167.5C 1135.92,167.212 1152.08,154.212 1158,128.5C 1158.6,100.425 1145.1,83.5915 1117.5,78C 1097.5,77.6667 1077.5,77.3333 1057.5,77C 1047.01,74.1722 1038.18,68.6722 1031,60.5C 1017.09,38.9474 1018.59,18.6141 1035.5,-0.5 Z"/></g>
<g><path style="opacity:1" fill="#f7d014" d="M 1836.5,-0.5 C 1864.17,-0.5 1891.83,-0.5 1919.5,-0.5C 1919.5,232.5 1919.5,465.5 1919.5,698.5C 1897.83,698.667 1876.16,698.5 1854.5,698C 1845.22,696.763 1836.22,694.429 1827.5,691C 1784.19,672.681 1759.36,640.181 1753,593.5C 1752.33,428.5 1752.33,263.5 1753,98.5C 1761.19,48.822 1789.02,15.822 1836.5,-0.5 Z"/></g>
<g><path style="opacity:1" fill="#b7cdfd" d="M 1004.5,172.5 C 994.024,178.484 986.524,187.151 982,198.5C 976.192,224.377 985.025,243.21 1008.5,255C 1020.83,256.667 1033.16,258.334 1045.5,260C 1061.16,265.663 1071.33,276.496 1076,292.5C 1079.13,322.693 1065.96,341.193 1036.5,348C 1020.17,348.5 1003.84,348.667 987.5,348.5C 1000.66,347.669 1013.99,347.169 1027.5,347C 1031.61,344.552 1035.45,341.719 1039,338.5C 1055.94,316.96 1055.44,295.793 1037.5,275C 1024.12,264.247 1008.78,259.914 991.5,262C 985.752,261.127 980.419,259.127 975.5,256C 960.007,245.201 953.174,230.367 955,211.5C 961.344,185.66 977.844,172.66 1004.5,172.5 Z"/></g>
<g><path style="opacity:1" fill="#446af8" d="M 917.5,232.5 C 906.01,226.182 901.51,216.515 904,203.5C 905.431,199.626 907.597,196.293 910.5,193.5C 917.872,187.348 926.205,185.848 935.5,189C 948.088,195.68 952.255,205.847 948,219.5C 941.35,231.881 931.183,236.214 917.5,232.5 Z"/></g>
<g><path style="opacity:1" fill="#b8cefd" d="M 910.5,193.5 C 907.597,196.293 905.431,199.626 904,203.5C 901.51,216.515 906.01,226.182 917.5,232.5C 906.207,240.805 895.207,240.472 884.5,231.5C 876.192,220.187 876.525,209.187 885.5,198.5C 892.903,192.586 901.236,190.919 910.5,193.5 Z"/></g>
<g><path style="opacity:1" fill="#b8cefd" d="M 973.5,352.5 C 963.024,358.484 955.524,367.151 951,378.5C 944.926,409.519 957.093,429.352 987.5,438C 1011.83,438.333 1036.17,438.667 1060.5,439C 1079.44,444.276 1091.28,456.442 1096,475.5C 1096.48,510.851 1078.98,528.517 1043.5,528.5C 1057.51,521.879 1066.35,510.879 1070,495.5C 1072.23,468.451 1060.4,450.951 1034.5,443C 1011.17,442.667 987.833,442.333 964.5,442C 939.006,437.837 925.339,422.837 923.5,397C 927.123,367.545 943.789,352.712 973.5,352.5 Z"/></g>
<g><path style="opacity:1" fill="#456bf8" d="M 979.5,482.5 C 979.552,484.903 979.219,487.236 978.5,489.5C 975.539,498.959 969.206,504.793 959.5,507C 953.843,507.499 948.176,507.666 942.5,507.5C 931.828,507.667 921.161,507.5 910.5,507C 893.649,500.127 888.816,488.294 896,471.5C 898.372,469.297 900.539,466.963 902.5,464.5C 905.324,463.055 908.324,461.889 911.5,461C 927.5,460.333 943.5,460.333 959.5,461C 970.84,463.839 977.507,471.006 979.5,482.5 Z"/></g>
<g><path style="opacity:1" fill="#456bf8" d="M 1020.5,506.5 C 1007.96,500.416 1003.13,490.416 1006,476.5C 1007.93,472.968 1010.09,469.634 1012.5,466.5C 1023.25,458.507 1033.92,458.674 1044.5,467C 1054.21,479.511 1053.55,491.511 1042.5,503C 1035.66,507.363 1028.33,508.53 1020.5,506.5 Z"/></g>
<g><path style="opacity:1" fill="#b9cffd" d="M 902.5,464.5 C 900.539,466.963 898.372,469.297 896,471.5C 888.816,488.294 893.649,500.127 910.5,507C 921.161,507.5 931.828,507.667 942.5,507.5C 940.507,509.163 938.174,510.33 935.5,511C 918.833,511.667 902.167,511.667 885.5,511C 871.606,506.056 865.772,496.222 868,481.5C 874.949,467.209 886.449,461.542 902.5,464.5 Z"/></g>
<g><path style="opacity:1" fill="#b8cefd" d="M 1012.5,466.5 C 1010.09,469.634 1007.93,472.968 1006,476.5C 1003.13,490.416 1007.96,500.416 1020.5,506.5C 1014.68,508.736 1008.68,510.403 1002.5,511.5C 989.049,510.047 981.049,502.713 978.5,489.5C 979.219,487.236 979.552,484.903 979.5,482.5C 985.608,467.445 996.608,462.112 1012.5,466.5 Z"/></g>
<g><path style="opacity:1" fill="#b8cefd" d="M 1033.5,531.5 C 1019.28,538.563 1010.45,549.896 1007,565.5C 1005.22,592.793 1017.39,610.293 1043.5,618C 1082.83,618.333 1122.17,618.667 1161.5,619C 1174.38,621.353 1184.55,627.853 1192,638.5C 1204.29,661.647 1200.79,681.98 1181.5,699.5C 1174.17,699.5 1166.83,699.5 1159.5,699.5C 1170.8,686.997 1174.96,672.33 1172,655.5C 1165.58,636.415 1152.41,625.248 1132.5,622C 1094.17,621.667 1055.83,621.333 1017.5,621C 1009.28,619.043 1001.95,615.376 995.5,610C 980.197,593.485 977.364,574.985 987,554.5C 997.971,537.931 1013.47,530.265 1033.5,531.5 Z"/></g>
<g><path style="opacity:1" fill="#b8cefd" d="M 1113.5,643.5 C 1101.13,653.405 1099.3,665.071 1108,678.5C 1111.59,682.286 1115.75,684.953 1120.5,686.5C 1109.89,690.225 1099.22,690.392 1088.5,687C 1076.92,677.989 1074.42,666.823 1081,653.5C 1089.77,644.045 1100.6,640.712 1113.5,643.5 Z"/></g>
<g><path style="opacity:1" fill="#456af8" d="M 1120.5,686.5 C 1115.75,684.953 1111.59,682.286 1108,678.5C 1099.3,665.071 1101.13,653.405 1113.5,643.5C 1122.6,640.087 1131.93,639.587 1141.5,642C 1154.96,648.768 1159.13,659.268 1154,673.5C 1150.91,680.256 1145.74,684.423 1138.5,686C 1132.51,686.499 1126.51,686.666 1120.5,686.5 Z"/></g>
</svg>
